<svg width="72" height="72" viewBox="0 0 72 72" fill="none" xmlns="http://www.w3.org/2000/svg">
<rect width="72" height="72" rx="12" fill="#E6EAF4"/>
<path d="M35.4116 42.3636H36.6133L36.6197 40.9254C39.3235 40.7273 40.8704 39.1804 40.8704 37.1094C40.8704 34.7507 38.7674 33.8366 37.1055 33.4276L36.6388 33.3061L36.6516 29.2024C37.8469 29.3622 38.6651 30.027 38.7866 31.0753H40.6914C40.6403 29.1257 39.0295 27.6683 36.658 27.4766L36.6644 26H35.4627L35.4563 27.4893C33.1616 27.7195 31.4805 29.1513 31.4805 31.2159C31.4805 33.0376 32.7844 34.1051 34.8874 34.674L35.4371 34.821L35.4244 39.174C34.1779 39.0206 33.2127 38.343 33.1104 37.1094H31.1289C31.2504 39.3146 32.842 40.7337 35.418 40.9254L35.4116 42.3636ZM36.6261 39.174L36.6388 35.1534C37.9364 35.5114 38.9144 35.9844 38.9144 37.0902C38.9144 38.2088 37.9812 38.995 36.6261 39.174ZM35.4435 32.9865C34.4911 32.7053 33.4428 32.2003 33.4492 31.1009C33.4492 30.142 34.2099 29.3942 35.4499 29.2088L35.4435 32.9865Z" fill="#00248A"/>
<path d="M18 17H24V52L18 47V17Z" fill="white"/>
<path d="M39.5 58L18 42V47L36.5 60.5L39.5 58Z" fill="white"/>
<path fill-rule="evenodd" clip-rule="evenodd" d="M16 15H56V46.4766L36.5163 62.2742L16 46.4924V15ZM18 17V45.5076L36.4837 59.7258L54 45.5234V17H18Z" fill="#00248A"/>
<path fill-rule="evenodd" clip-rule="evenodd" d="M45.2071 35.793L55.2071 45.793L53.7928 47.2072L43.7928 37.2072L45.2071 35.793Z" fill="#00248A"/>
<path fill-rule="evenodd" clip-rule="evenodd" d="M45.2071 29.293L55.2071 39.293L53.7928 40.7072L43.7928 30.7072L45.2071 29.293Z" fill="#00248A"/>
<path fill-rule="evenodd" clip-rule="evenodd" d="M45.2071 22.793L55.2071 32.793L53.7928 34.2072L43.7928 24.2072L45.2071 22.793Z" fill="#00248A"/>
</svg>
