<svg width="10" height="8" viewBox="0 0 10 8" fill="none" xmlns="http://www.w3.org/2000/svg">
<path d="M2.384 7.688C1.632 7.688 1.056 7.424 0.656 6.896C0.272 6.352 0.08 5.712 0.08 4.976C0.08 3.984 0.368 3.064 0.944 2.216C1.536 1.368 2.272 0.735999 3.152 0.319999L4.568 1.448C3.928 1.704 3.368 2.064 2.888 2.528C2.408 2.976 2.08 3.448 1.904 3.944L2.024 4.016C2.104 3.952 2.2 3.904 2.312 3.872C2.424 3.84 2.584 3.824 2.792 3.824C3.16 3.824 3.528 3.976 3.896 4.28C4.28 4.568 4.472 5.016 4.472 5.624C4.472 6.264 4.264 6.768 3.848 7.136C3.432 7.504 2.944 7.688 2.384 7.688ZM7.76 7.688C7.008 7.688 6.432 7.424 6.032 6.896C5.648 6.352 5.456 5.712 5.456 4.976C5.456 3.984 5.744 3.064 6.32 2.216C6.912 1.368 7.648 0.735999 8.528 0.319999L9.944 1.448C9.304 1.704 8.744 2.064 8.264 2.528C7.784 2.976 7.456 3.448 7.28 3.944L7.4 4.016C7.48 3.952 7.576 3.904 7.688 3.872C7.8 3.84 7.96 3.824 8.168 3.824C8.536 3.824 8.904 3.976 9.272 4.28C9.656 4.568 9.848 5.016 9.848 5.624C9.848 6.264 9.64 6.768 9.224 7.136C8.808 7.504 8.32 7.688 7.76 7.688Z" fill="#FFB900"/>
</svg>
